<?xml version="1.0" encoding="UTF-8" standalone="no" ?>
<!DOCTYPE svg PUBLIC "-//W3C//DTD SVG 1.1//EN" "http://www.w3.org/Graphics/SVG/1.1/DTD/svg11.dtd">
<svg xmlns="http://www.w3.org/2000/svg" xmlns:xlink="http://www.w3.org/1999/xlink" version="1.1" width="1080" height="1080" viewBox="0 0 1080 1080" xml:space="preserve">
<desc>Created with Fabric.js 5.2.4</desc>
<defs>
</defs>
<g transform="matrix(1 0 0 1 540 540)" id="a466fe2f-587b-4bc7-ae29-56e3b56c17e2"  >
<rect style="stroke: none; stroke-width: 1; stroke-dasharray: none; stroke-linecap: butt; stroke-dashoffset: 0; stroke-linejoin: miter; stroke-miterlimit: 4; fill: rgb(255,255,255); fill-rule: nonzero; opacity: 1; visibility: hidden;" vector-effect="non-scaling-stroke"  x="-540" y="-540" rx="0" ry="0" width="1080" height="1080" />
</g>
<g transform="matrix(1 0 0 1 540 540)" id="3af5450b-292d-45b7-b564-326d2d6fddaa"  >
</g>
<g transform="matrix(26.55 0 0 25.48 540.83 542.04)"  >
<g style="" vector-effect="non-scaling-stroke"   >
		<g transform="matrix(1 0 0 1 0 0)"  >
<path style="stroke: none; stroke-width: 1; stroke-dasharray: none; stroke-linecap: butt; stroke-dashoffset: 0; stroke-linejoin: miter; stroke-miterlimit: 4; fill: rgb(255,105,0); fill-rule: nonzero; opacity: 1;" vector-effect="non-scaling-stroke"  transform=" translate(-20.18, -21)" d="M 18.77 0 C 30.976 0 40.36 8.4 40.36 20.868 C 40.36 33.338 30.976 42 18.77 42 L 5.053 42 C 3.693294231991289 42.06748299710423 2.3684605273457593 41.55682061080229 1.4058199582717337 40.594180041728265 C 0.4431793891977085 39.63153947265424 -0.06748299710423211 38.30670576800871 -8.881784197001252e-16 36.947 L 0 5.25 C -0.0751069009711547 3.8701393298498576 0.4265208284100216 2.521111541166188 1.3849134454117493 1.5255513434497119 C 2.343306062413477 0.5299911457332351 3.6722812148887307 -0.02257685698520362 5.053999999999999 0 z" stroke-linecap="round" />
</g>
		<g transform="matrix(1 0 0 1 -3.1 2.01)"  >
<path style="stroke: none; stroke-width: 1; stroke-dasharray: none; stroke-linecap: butt; stroke-dashoffset: 0; stroke-linejoin: miter; stroke-miterlimit: 4; fill: rgb(0,0,0); fill-rule: nonzero; opacity: 1;" vector-effect="non-scaling-stroke"  transform=" translate(-17.08, -23.02)" d="M 32.813 16.34 C 32.747 16.866 32.156000000000006 16.866 31.893 16.406 C 31.041 14.963 29.925 14.7 28.153 14.568999999999999 C 26.840999999999998 14.502999999999998 25.266 14.633999999999999 23.822 14.633999999999999 C 23.702609300300136 14.647054513629225 23.586939214911514 14.587645728276565 23.528 14.482999999999999 C 23.509547570986594 14.448566657792902 23.49799803346772 14.410860814716582 23.494 14.371999999999998 C 23.756 13.124999999999998 24.806 10.827999999999998 25.922 10.631999999999998 C 26.447 10.565999999999997 27.628 10.434999999999999 28.284 10.434999999999999 C 31.304 10.434999999999999 32.944 13.912999999999998 32.813 16.340999999999998 M 15.75 28.22 C 17.974 28.811 20.28 29.032999999999998 22.575 28.875999999999998 C 25.581647544684675 28.672395628903367 28.49068752923438 27.725394188149885 31.040999999999997 26.12 C 30.055999999999997 28.613999999999997 26.315999999999995 30.188999999999997 22.770999999999997 30.581999999999997 C 22.770999999999997 30.778999999999996 22.705999999999996 30.910999999999998 22.705999999999996 31.106999999999996 C 24.965999999999994 31.016999999999996 27.170999999999996 30.386999999999997 29.137999999999998 29.269999999999996 C 28.480999999999998 31.697999999999997 25.2 32.681999999999995 22.180999999999997 32.879999999999995 C 22.10659231908833 33.060835985152764 22.019024179575208 33.235972264179004 21.918999999999997 33.403999999999996 C 23.404999999999998 33.425 24.886999999999997 33.226 26.315999999999995 32.81399999999999 C 24.937999999999995 35.37299999999999 19.030999999999995 37.14399999999999 14.043999999999995 34.782 C 15.082313270286841 32.74445826556304 15.664467190662053 30.505247230684866 15.749999999999993 28.21999999999999 M 32.221999999999994 10.763999999999996 C 31.107733064122918 9.710364666492747 29.61986694518023 9.143644197971652 28.086999999999996 9.188999999999997 C 26.118999999999996 9.188999999999997 24.477999999999994 9.713999999999997 22.049999999999997 9.778999999999996 C 20.409999999999997 9.844999999999997 18.9 6.234999999999996 16.930999999999997 5.775999999999996 C 16.077999999999996 3.8729999999999962 14.108999999999998 3.6099999999999963 12.927999999999997 4.594999999999996 C 11.811999999999998 3.938999999999996 10.105999999999998 4.266999999999996 10.040999999999997 5.513999999999996 C 8.793999999999997 5.119999999999996 7.152999999999997 5.775999999999996 7.8749999999999964 7.481999999999996 C 4.790999999999997 7.547999999999996 4.264999999999997 10.303999999999995 6.299999999999996 10.566999999999997 C 3.6099999999999963 12.076999999999996 4.855999999999996 14.700999999999997 7.0879999999999965 14.176999999999996 C 7.480999999999996 18.113999999999997 9.252999999999997 23.231999999999996 6.365999999999996 24.478999999999996 C 6.037999999999996 24.609999999999996 4.724999999999996 24.938999999999997 2.2309999999999963 24.347999999999995 L 0 23.757 L 0 25.791 C 2.166 26.316 4.331 26.709 5.71 26.578 C 9.516 26.185 9.713000000000001 23.035 9.516 20.278 C 9.318999999999999 17.520999999999997 8.4 14.437999999999999 8.728 12.206 L 8.597 12.075999999999999 C 7.218999999999999 13.518999999999998 6.299999999999999 13.126 6.169 12.665999999999999 C 5.9719999999999995 11.746999999999998 7.6129999999999995 10.565999999999999 8.530999999999999 10.171999999999999 C 8.530999999999999 10.105999999999998 8.597 10.040999999999999 8.597 9.975 C 7.744 10.106 6.693999999999999 9.975 6.627999999999999 9.385 C 6.561999999999999 8.663 8.072 7.941 10.040999999999999 8.138 C 10.105999999999998 8.138 10.105999999999998 8.072 10.171 8.072 L 9.777999999999999 7.874999999999999 C 9.252999999999998 7.6129999999999995 9.121999999999998 7.152999999999999 9.317999999999998 6.890999999999999 C 9.61596252457993 6.557749073972264 10.055155445564495 6.386827971051029 10.499999999999998 6.430999999999999 C 11.111631905582446 6.437737774923468 11.715140274516134 6.571926430318431 12.271999999999997 6.824999999999999 C 12.338 6.824999999999999 12.338 6.7589999999999995 12.402999999999999 6.7589999999999995 C 12.271999999999998 6.629 12.075 6.497 12.008999999999999 6.366 C 11.862700105465636 6.161550791603744 11.890957216123144 5.880264099149466 12.075 5.709 C 12.602103135576641 5.450021038068683 13.235639115201812 5.555811490539426 13.649999999999999 5.9719999999999995 L 13.977999999999998 6.3 C 14.050279879281597 6.309035729914101 14.122751799833136 6.284755797140489 14.174999999999997 6.234 C 14.055123223805763 6.110431440388653 13.984987929189217 5.947019764099338 13.977999999999998 5.775 C 13.936805198665725 5.6707665462813095 13.941951631266509 5.553921762228705 13.99215106320748 5.453713770711558 C 14.042350495148451 5.353505779194411 14.132851418096934 5.2794195303064635 14.240999999999998 5.25 C 14.544593524155326 5.198784354511347 14.850638591446602 5.326335538846212 15.027999999999999 5.578 C 15.200999999999999 5.8420000000000005 15.332999999999998 6.1290000000000004 15.421999999999999 6.431 C 13.857223975847184 6.502552590598327 12.398886736521812 7.243925631324567 11.419 8.465999999999998 C 10.35023409923417 10.045934735976562 10.060131119761081 12.026955208749005 10.630999999999997 13.847000000000001 C 11.10623200063947 15.863428661434543 11.742610321376414 17.83844198895552 12.53399999999999 19.752999999999993 L 12.533999999999999 19.819 C 14.108999999999998 24.346999999999998 17.128 35.503 2.4939999999999998 41.409 C 3.252885582535993 41.774220980009666 4.080158135486554 41.9755875692987 4.921999999999998 42 L 6.4319999999999995 42 C 8.973922259000755 40.71687426541389 11.194197355992987 38.87769626404148 12.928 36.619 C 19.622 39.572 25.725 38.063 28.35 33.206 C 30.00318867413773 32.16354724527995 31.090468728745627 30.423825518892443 31.303 28.481 C 32.28193497840713 27.29243284344122 32.64659594374903 25.7134693742197 32.288000000000004 24.216 C 32.222 23.953 31.959000000000003 23.953 31.566000000000003 24.150000000000002 C 26.119000000000003 27.431 21.328000000000003 27.956000000000003 15.619000000000003 26.250000000000004 C 15.467388352951916 24.46363873425299 15.204208025673038 22.688507465868092 14.831000000000014 20.934999999999995 C 14.700000000000003 18.638 15.421000000000003 17.522000000000002 19.621000000000002 18.900000000000002 C 22.378000000000004 19.622000000000003 23.625 20.869000000000003 24.609 21.525000000000002 C 25.069000000000003 21.853 25.659000000000002 22.247000000000003 25.987000000000002 21.985000000000003 C 26.184 21.853 26.250000000000004 21.459000000000003 26.250000000000004 21.000000000000004 C 26.134701438581867 19.557257864644424 25.733226220933737 18.15192463030287 25.069000000000003 16.866000000000003 C 26.314722446325906 16.797381401214594 27.56327755367409 16.797381401214594 28.808999999999994 16.866000000000003 C 29.680964569439368 16.907338966840438 30.43744351010255 17.481356618084597 30.712000000000003 18.310000000000002 C 31.172000000000004 19.622000000000003 33.732000000000006 19.294000000000004 33.928000000000004 18.178 C 34.322 15.881 34.453 12.863 32.222 10.763000000000002 M 3.084 30.45 C 2.0570631074841828 30.38388269534414 1.0269368925158036 30.38388269534414 -1.3766765505351941e-14 30.45 L 0 31.828 C 1.772 31.435 2.888 31.238 2.888 31.238 z" stroke-linecap="round" />
</g>
		<g transform="matrix(1 0 0 1 1.03 0.35)"  >
<path style="stroke: none; stroke-width: 1; stroke-dasharray: none; stroke-linecap: butt; stroke-dashoffset: 0; stroke-linejoin: miter; stroke-miterlimit: 4; fill: rgb(255,255,255); fill-rule: nonzero; opacity: 1;" vector-effect="non-scaling-stroke"  transform=" translate(-21.21, -21.35)" d="M 19.491 16.078 C 17.194 15.552999999999999 14.635 14.895999999999999 13.322 12.927999999999999 C 13.322 12.861999999999998 13.257 12.861999999999998 13.191999999999998 12.861999999999998 C 13.174495711670588 12.861999999999998 13.157708353419256 12.868953551464116 13.145330952441686 12.881330952441687 C 13.132953551464116 12.893708353419257 13.125999999999998 12.910495711670588 13.125999999999998 12.927999999999999 C 13.116147809965662 13.0412837773982 13.138689964331865 13.155034956353811 13.190999999999997 13.255999999999998 L 12.993999999999998 13.320999999999998 C 12.623547997336042 12.869231522937055 12.597033183605292 12.226757190230444 12.928999999999998 11.745999999999999 C 13.506586202395006 11.162038245848004 14.420930548155592 11.07926157528492 15.093999999999998 11.549999999999997 L 15.028999999999998 11.745999999999999 C 14.72339176432058 11.666533658975252 14.400135400456056 11.689723789426402 14.108999999999998 11.812 C 14.015542502723966 11.858151342609858 13.947173872018464 11.943144335059582 13.92212075666321 12.044320377840414 C 13.897067641307956 12.145496420621246 13.917876565365365 12.252571474250358 13.978999999999997 12.337 C 15.093999999999998 14.437 18.375999999999998 14.897 22.247 14.568 C 22.50016314224006 14.603142680727462 22.734388636090777 14.427808168187779 22.772 14.174999999999999 C 23.06136155934822 12.87140485684176 23.69623084814978 11.669712661117808 24.61 10.696000000000002 C 23.980999999999998 10.798999999999998 23.344 10.842999999999998 22.707 10.827999999999998 C 20.738 10.957999999999998 19.557000000000002 10.695999999999998 19.229 10.433999999999997 L 19.294 10.236999999999998 C 19.491 10.302999999999999 19.754 10.302999999999999 19.754 10.236999999999998 C 19.754 10.170999999999998 19.754 10.105999999999998 19.688000000000002 10.04 C 19.294000000000004 9.712 17.588 7.9399999999999995 17.588 7.9399999999999995 C 17.391000000000002 6.43 15.226 6.43 14.372 7.874999999999999 L 14.11 7.808999999999999 C 14.167 7.526999999999999 14.277999999999999 7.2589999999999995 14.437999999999999 7.020999999999999 C 12.795901730170637 7.464806481396777 11.596117466869464 8.87323159870031 11.418999999999999 10.565000000000001 C 10.631999999999998 17.259 20.804 15.684 23.691 18.375 C 23.756999999999998 18.44 23.887999999999998 18.637 23.954 18.505 C 24.019000000000002 18.375 22.772000000000002 16.799999999999997 19.491 16.078 M 15.947 8.07 C 16.407 7.94 17.128999999999998 8.399000000000001 17.457 9.120000000000001 C 17.785000000000004 9.841000000000001 17.719 10.564 17.26 10.761000000000001 C 16.8 10.958 16.079 10.433000000000002 15.750000000000002 9.711 C 15.685000000000002 9.58 15.685000000000002 9.514000000000001 15.620000000000001 9.383000000000001 L 15.685 9.383000000000001 C 15.797662640537842 9.515781650549354 15.979286195252925 9.567504880261692 16.145 9.514000000000001 C 16.341 9.383000000000001 16.275 9.120000000000001 16.145 8.858 C 16.012999999999998 8.595 15.815999999999999 8.464 15.619 8.464 L 15.554 8.399000000000001 C 15.648991875601258 8.252358637631982 15.785935775827102 8.137716034135027 15.947000000000001 8.07 M 31.041 26.118 C 28.490981004871163 27.723237328017436 25.58230380564027 28.670232527199992 22.576 28.874 C 20.281 28.994 17.981 28.773999999999997 15.751000000000001 28.218 Q 15.750000000000002 29.212 15.554000000000002 30.187 C 17.468967476523904 30.63737659465867 19.42700578045099 30.879449138397597 21.394 30.909 C 20.971456364197483 32.81523787030365 19.989130923500035 34.551805389891804 18.573 35.896 C 22.116 36.028 25.332 34.649 26.316000000000003 32.812 C 24.89329597332998 33.25160880394853 23.40726775142417 33.45100763290564 21.919000000000004 33.402 C 21.985000000000003 33.206 22.116000000000003 33.074 22.182000000000006 32.877 C 25.201000000000008 32.747 28.482000000000006 31.762000000000004 29.138000000000005 29.268 C 27.17125980763977 30.383984768477525 24.966435543869313 31.014130468494645 22.707000000000004 31.106 C 22.707000000000004 30.909000000000002 22.773000000000003 30.777 22.773000000000003 30.581000000000003 C 26.316000000000003 30.121000000000002 30.057000000000002 28.611000000000004 31.041000000000004 26.118000000000002" stroke-linecap="round" />
</g>
</g>
</g>
</svg>